<svg width="135" height="18" viewBox="0 0 135 18" fill="none" xmlns="http://www.w3.org/2000/svg">
<path d="M19.1274 14.2665V3.82843H23.137C25.6388 3.82843 26.6495 5.03792 26.6495 6.57878C26.6495 7.4072 26.2684 8.28532 25.1749 8.78238C26.7489 9.31256 27.0802 10.3232 27.0802 11.1517C27.0802 12.9742 25.9205 14.2665 23.4683 14.2665H19.1274ZM22.8884 5.53497H21.3144V8.15278H22.8387C23.982 8.15278 24.4293 7.75514 24.4293 6.81074C24.4293 5.91605 23.866 5.53497 22.8884 5.53497ZM23.1867 9.77648H21.3144V12.56H23.1867C24.2968 12.56 24.8601 12.0961 24.8601 11.1848C24.8601 10.257 24.3133 9.77648 23.1867 9.77648Z" fill="white"/>
<path d="M16.8897 10.2404H19.1264C18.5631 13.4712 16.3595 14.515 14.1393 14.515C11.0907 14.515 8.90369 12.212 8.90369 9.04746C8.90369 5.86633 11.0079 3.5799 14.1393 3.5799C16.3595 3.5799 18.5796 4.70655 19.1264 7.85454H16.8731C16.608 6.39652 15.6305 5.58467 14.1062 5.58467C12.3002 5.58467 11.1073 7.00955 11.1073 9.04746C11.1073 11.0854 12.3168 12.5103 14.1062 12.5103C15.647 12.5103 16.6246 11.715 16.8897 10.2404Z" fill="white"/>
<path d="M0 14.2665V3.82843H2.18703V8.06994H6.72676V3.82843H8.93036V14.2665H6.72676V10.0084H2.18703V14.2665H0Z" fill="white"/>
<path d="M90.5539 9.49481H89.2119C89.1788 8.73267 88.6486 8.31846 87.6876 8.31846C86.8592 8.31846 86.3456 8.61669 86.3456 9.13031C86.3456 9.62736 86.7929 9.89245 87.4225 10.0416L89.0794 10.4392C90.0072 10.6546 90.7859 11.1351 90.7859 12.2452C90.7859 13.5209 89.709 14.515 87.9196 14.515C86.1799 14.515 84.8544 13.5375 84.8213 12.0629H86.1633C86.2627 12.9907 86.9752 13.4215 87.9693 13.4215C88.9137 13.4215 89.4107 12.9907 89.4107 12.4606C89.4107 11.9635 88.9634 11.715 88.3504 11.5659L86.9255 11.2179C85.9811 10.986 85.0532 10.4558 85.0532 9.24629C85.0532 8.02023 86.0473 7.22495 87.7042 7.22495C89.4107 7.22495 90.4877 8.0368 90.5539 9.49481Z" fill="white"/>
<path d="M81.2093 14.2665V7.47347H82.5182V8.91492C82.9986 7.7717 83.8933 7.22495 84.9703 7.22495C85.1857 7.22495 85.3679 7.25808 85.5005 7.29122V8.79894C85.136 8.73267 84.7715 8.68296 84.4235 8.68296C83.0649 8.68296 82.5182 9.46168 82.5182 11.367V14.2665H81.2093Z" fill="white"/>
<path d="M77.1689 14.515C74.9984 14.515 73.6564 12.9742 73.6564 10.87C73.6564 8.7161 75.1641 7.22495 77.1523 7.22495C79.1074 7.22495 80.5157 8.60012 80.5157 10.7043C80.5157 10.8866 80.4991 11.0688 80.4826 11.2179H75.0316C75.1476 12.5268 75.9263 13.3552 77.1689 13.3552C78.0967 13.3552 78.8257 12.9079 79.0246 12.212H80.3832C79.9855 13.6203 78.8257 14.515 77.1689 14.515ZM77.1523 8.38473C76.0588 8.38473 75.2967 8.96462 75.0813 10.141H79.1405C79.0577 9.01433 78.2624 8.38473 77.1523 8.38473Z" fill="white"/>
<path d="M66.3857 17.166V7.47347H67.7112V8.79894C68.258 7.73856 69.3018 7.22495 70.2793 7.22495C71.787 7.22495 73.4604 8.50071 73.4604 10.87C73.4604 13.2393 71.787 14.515 70.2793 14.515C69.3018 14.515 68.258 14.0014 67.7112 12.941V17.166H66.3857ZM69.9645 13.2724C71.2734 13.2724 72.1018 12.2286 72.1018 10.87C72.1018 9.51138 71.2734 8.46757 69.9645 8.46757C68.6887 8.46757 67.6781 9.3457 67.6781 10.87C67.6781 12.3943 68.6722 13.2724 69.9645 13.2724Z" fill="white"/>
<path d="M62.0418 14.515C60.0205 14.515 58.3637 13.0404 58.3637 10.87C58.3637 8.69953 60.0371 7.22495 62.0418 7.22495C64.0466 7.22495 65.72 8.69953 65.72 10.87C65.72 13.0404 64.0632 14.515 62.0418 14.515ZM62.0418 13.3221C63.4005 13.3221 64.3614 12.4274 64.3614 10.87C64.3614 9.31256 63.3673 8.41787 62.0418 8.41787C60.7164 8.41787 59.7223 9.31256 59.7223 10.87C59.7223 12.4274 60.6832 13.3221 62.0418 13.3221Z" fill="white"/>
<path d="M56.3677 14.2665V3H57.6932V14.2665H56.3677Z" fill="white"/>
<path d="M52.3273 14.515C50.1569 14.515 48.8148 12.9742 48.8148 10.87C48.8148 8.7161 50.3226 7.22495 52.3108 7.22495C54.2658 7.22495 55.6741 8.60012 55.6741 10.7043C55.6741 10.8866 55.6576 11.0688 55.641 11.2179H50.19C50.306 12.5268 51.0847 13.3552 52.3273 13.3552C53.2552 13.3552 53.9842 12.9079 54.183 12.212H55.5416C55.144 13.6203 53.9842 14.515 52.3273 14.515ZM52.3108 8.38473C51.2173 8.38473 50.4551 8.96462 50.2397 10.141H54.299C54.2161 9.01433 53.4209 8.38473 52.3108 8.38473Z" fill="white"/>
<path d="M47.8152 7.47346H49.2401L46.4234 14.2665H45.1477L42.331 7.47346H43.7891L45.8104 12.7422L47.8152 7.47346Z" fill="white"/>
<path d="M39.1542 14.515C36.9837 14.515 35.6417 12.9742 35.6417 10.87C35.6417 8.7161 37.1494 7.22495 39.1376 7.22495C41.0927 7.22495 42.501 8.60012 42.501 10.7043C42.501 10.8866 42.4844 11.0688 42.4679 11.2179H37.0169C37.1328 12.5268 37.9116 13.3552 39.1542 13.3552C40.082 13.3552 40.811 12.9079 41.0098 12.212H42.3685C41.9708 13.6203 40.811 14.515 39.1542 14.515ZM39.1376 8.38473C38.0441 8.38473 37.282 8.96462 37.0666 10.141H41.1258C41.043 9.01433 40.2477 8.38473 39.1376 8.38473Z" fill="white"/>
<path d="M26.8035 14.2665V3.82841H29.3385C33.5965 3.82841 35.7007 6.06515 35.7007 9.04745C35.7007 12.0298 33.5965 14.2665 29.3385 14.2665H26.8035ZM29.5041 13.0239C32.4202 13.0239 34.3587 11.8144 34.3587 9.04745C34.3587 6.28053 32.4202 5.07104 29.5041 5.07104H28.129V13.0239H29.5041Z" fill="white"/>
<path d="M128.071 11.6777V10.1684L126.83 8.0896H127.382L128.305 9.70709L129.256 8.0896H129.774L128.533 10.1684V11.6777H128.071Z" fill="#EC3750"/>
<path d="M125.198 11.6777V8.51675H124.059V8.0896H126.798V8.51675H125.659V11.6777H125.198Z" fill="#EC3750"/>
<path d="M123.203 11.6777V8.0896H123.659V11.6777H123.203Z" fill="#EC3750"/>
<path d="M119.436 11.6777V8.0896H120.08L122.016 11.1708V8.0896H122.461V11.6777H121.766L119.881 8.64775V11.6777H119.436Z" fill="#EC3750"/>
<path d="M116.007 8.0896H116.468V10.1684C116.468 11.0056 116.753 11.336 117.391 11.336C118.029 11.336 118.313 11.0056 118.313 10.1684V8.0896H118.775V10.2311C118.775 11.2278 118.291 11.7631 117.391 11.7631C116.491 11.7631 116.007 11.2278 116.007 10.2311V8.0896Z" fill="#EC3750"/>
<path d="M112.035 11.6777H111.585V8.0896H112.388L113.465 11.1993L114.541 8.0896H115.344V11.6777H114.894V8.51106L113.784 11.6777H113.146L112.035 8.51106V11.6777Z" fill="#EC3750"/>
<path d="M107.534 11.6777H107.084V8.0896H107.887L108.964 11.1993L110.04 8.0896H110.843V11.6777H110.393V8.51106L109.283 11.6777H108.645L107.534 8.51106V11.6777Z" fill="#EC3750"/>
<path d="M104.756 11.7631C103.719 11.7631 102.905 10.9373 102.905 9.88363C102.905 8.82998 103.725 8.00415 104.756 8.00415C105.793 8.00415 106.613 8.82998 106.613 9.88363C106.613 10.9373 105.793 11.7631 104.756 11.7631ZM104.756 11.3303C105.57 11.3303 106.146 10.7322 106.146 9.88363C106.146 9.03501 105.57 8.437 104.756 8.437C103.942 8.437 103.372 9.03501 103.372 9.88363C103.372 10.7322 103.942 11.3303 104.756 11.3303Z" fill="#EC3750"/>
<path d="M102.207 10.3563H102.685C102.566 11.2277 101.905 11.7631 101.016 11.7631C99.9627 11.7631 99.1881 10.9657 99.1881 9.88363C99.1881 8.78442 99.9456 8.00415 101.016 8.00415C101.905 8.00415 102.571 8.54521 102.691 9.41091H102.207C102.127 8.8015 101.671 8.4313 100.994 8.4313C100.185 8.4313 99.6552 9.00654 99.6552 9.88363C99.6552 10.7607 100.185 11.3359 100.994 11.3359C101.671 11.3359 102.127 10.9657 102.207 10.3563Z" fill="#EC3750"/>
<path fill-rule="evenodd" clip-rule="evenodd" d="M99.3133 5.75999H130.103C132.37 5.75999 134.208 7.77471 134.208 10.26C134.208 12.7453 132.37 14.76 130.103 14.76H99.3133C97.046 14.76 95.208 12.7453 95.208 10.26C95.208 7.77471 97.046 5.75999 99.3133 5.75999ZM99.3133 6.32249C97.3294 6.32249 95.7212 8.08537 95.7212 10.26C95.7212 12.4346 97.3294 14.1975 99.3133 14.1975H130.103C132.087 14.1975 133.695 12.4346 133.695 10.26C133.695 8.08537 132.087 6.32249 130.103 6.32249H99.3133Z" fill="#EC3750"/>
</svg>
